<svg width="18" height="18" viewBox="0 0 18 18" fill="none" xmlns="http://www.w3.org/2000/svg">
<path d="M11.8797 9.34697V12.2681C11.8797 14.7024 10.906 15.6761 8.47173 15.6761H5.55059C3.11629 15.6761 2.14258 14.7024 2.14258 12.2681V9.34697C2.14258 6.91268 3.11629 5.93896 5.55059 5.93896H8.47173C10.906 5.93896 11.8797 6.91268 11.8797 9.34697Z" stroke="#B64F00" stroke-width="1.19231" stroke-linecap="round" stroke-linejoin="round"/>
<path d="M16.0536 5.17388V8.09503C16.0536 10.5293 15.0799 11.503 12.6456 11.503H11.8805V9.34695C11.8805 6.91266 10.9068 5.93894 8.47249 5.93894H6.31641V5.17388C6.31641 2.73959 7.29012 1.76587 9.72441 1.76587H12.6456C15.0799 1.76587 16.0536 2.73959 16.0536 5.17388Z" stroke="#B64F00" stroke-width="1.19231" stroke-linecap="round" stroke-linejoin="round"/>
</svg>
