<svg width="97" height="36" viewBox="0 0 97 36" fill="none" xmlns="http://www.w3.org/2000/svg">
<path d="M2.184 27V10.2H9.312C10.32 10.2 11.224 10.44 12.024 10.92C12.824 11.384 13.456 12.024 13.92 12.84C14.4 13.656 14.64 14.576 14.64 15.6C14.64 16.64 14.4 17.576 13.92 18.408C13.456 19.24 12.824 19.904 12.024 20.4C11.224 20.88 10.32 21.12 9.312 21.12H5.784V27H2.184ZM5.736 17.88H8.904C9.288 17.88 9.632 17.784 9.936 17.592C10.24 17.384 10.48 17.112 10.656 16.776C10.848 16.44 10.944 16.056 10.944 15.624C10.944 15.192 10.848 14.816 10.656 14.496C10.48 14.176 10.24 13.92 9.936 13.728C9.632 13.536 9.288 13.44 8.904 13.44H5.736V17.88Z" fill="#6028E0"/>
<path d="M18.4315 28C17.4904 28 16.7275 27.2371 16.7275 26.296V11.944C16.7275 11.0029 17.4904 10.24 18.4315 10.24V10.24C19.3726 10.24 20.1355 11.0029 20.1355 11.944V26.296C20.1355 27.2371 19.3726 28 18.4315 28V28Z" fill="url(#paint0_linear_89_1491)"/>
<path d="M28.1118 28.24C27.0558 28.24 26.1038 27.952 25.2558 27.376C24.4078 26.8 23.7358 26.016 23.2398 25.024C22.7438 24.032 22.4958 22.896 22.4958 21.616C22.4958 20.336 22.7438 19.2 23.2398 18.208C23.7518 17.216 24.4398 16.44 25.3038 15.88C26.1678 15.32 27.1518 15.04 28.2558 15.04C28.8798 15.04 29.4478 15.136 29.9598 15.328C30.4878 15.504 30.9438 15.752 31.3278 16.072C31.7278 16.392 32.0638 16.76 32.3358 17.176C32.5214 17.4599 32.6698 17.7588 32.7809 18.0726C32.855 18.2817 32.6706 18.4798 32.4517 18.4433V18.4433C32.3017 18.4183 32.1918 18.2885 32.1918 18.1365V16.9801C32.1918 16.0544 32.9501 15.304 33.8758 15.304V15.304C34.8103 15.304 35.5758 16.0615 35.5758 16.996V26.284C35.5758 27.2317 34.8075 28 33.8598 28H33.7391C32.858 28 32.1438 27.2858 32.1438 26.4047V25.2479C32.1438 25.0802 32.2714 24.94 32.4384 24.9244V24.9244C32.6661 24.903 32.8427 25.1174 32.7537 25.3281C32.6333 25.6132 32.478 25.8878 32.2878 26.152C31.9998 26.552 31.6398 26.912 31.2078 27.232C30.7918 27.536 30.3198 27.784 29.7918 27.976C29.2638 28.152 28.7038 28.24 28.1118 28.24ZM29.0478 25.288C29.6878 25.288 30.2478 25.136 30.7278 24.832C31.2078 24.528 31.5758 24.104 31.8318 23.56C32.1038 23 32.2398 22.352 32.2398 21.616C32.2398 20.896 32.1038 20.264 31.8318 19.72C31.5758 19.176 31.2078 18.752 30.7278 18.448C30.2478 18.128 29.6878 17.968 29.0478 17.968C28.4238 17.968 27.8718 18.128 27.3918 18.448C26.9278 18.752 26.5598 19.176 26.2878 19.72C26.0158 20.264 25.8798 20.896 25.8798 21.616C25.8798 22.352 26.0158 23 26.2878 23.56C26.5598 24.104 26.9278 24.528 27.3918 24.832C27.8718 25.136 28.4238 25.288 29.0478 25.288Z" fill="url(#paint1_linear_89_1491)"/>
<path d="M42.2424 33.52C41.4109 33.52 40.8496 32.6705 41.1758 31.9056L42.8978 27.8679C42.985 27.6636 43.2892 27.7219 43.2946 27.944V27.944C43.3001 28.1691 42.9927 28.2395 42.8997 28.0344L38.2454 17.7697C37.7215 16.6144 38.5662 15.304 39.8347 15.304V15.304C40.5358 15.304 41.1688 15.7236 41.4419 16.3693L44.0874 22.624C44.2154 22.896 44.3354 23.216 44.4474 23.584C44.5554 23.881 44.6463 24.1666 44.7201 24.4408C44.7436 24.5283 44.6997 24.6193 44.6174 24.6571V24.6571C44.4622 24.7282 44.2966 24.5709 44.3541 24.4102C44.4092 24.2565 44.4643 24.0931 44.5194 23.92C44.6474 23.568 44.7754 23.192 44.9034 22.792L47.1512 16.4737C47.4007 15.7724 48.0645 15.304 48.8089 15.304V15.304C50.0663 15.304 50.9178 16.5848 50.4313 17.7443L46.1274 28L44.3374 32.524C44.0996 33.1251 43.5187 33.52 42.8723 33.52H42.2424Z" fill="url(#paint2_linear_89_1491)"/>
<path d="M57.6575 28.24C56.7295 28.24 55.9295 28.04 55.2575 27.64C54.6015 27.224 54.0895 26.64 53.7215 25.888C53.3695 25.12 53.1935 24.2 53.1935 23.128V17.008C53.1935 16.0669 53.9564 15.304 54.8975 15.304V15.304C55.8386 15.304 56.6015 16.0669 56.6015 17.008V22.576C56.6015 23.152 56.6975 23.656 56.8895 24.088C57.0815 24.504 57.3535 24.824 57.7055 25.048C58.0575 25.272 58.4895 25.384 59.0015 25.384C59.3695 25.384 59.7055 25.328 60.0095 25.216C60.3295 25.088 60.6015 24.912 60.8255 24.688C61.0655 24.464 61.2495 24.2 61.3775 23.896C61.5055 23.592 61.5695 23.264 61.5695 22.912V17.008C61.5695 16.0669 62.3324 15.304 63.2735 15.304V15.304C64.2146 15.304 64.9775 16.0669 64.9775 17.008V26.3429C64.9775 27.2581 64.2356 28 63.3203 28H63.2741C62.4143 28 61.7065 27.3239 61.6671 26.4649L61.6246 25.5401C61.6203 25.4457 61.6736 25.3581 61.7593 25.3185V25.3185C61.9433 25.2336 62.1324 25.4061 62.0458 25.5892C61.8564 25.9894 61.6016 26.361 61.2815 26.704C60.8335 27.184 60.2975 27.56 59.6735 27.832C59.0495 28.104 58.3775 28.24 57.6575 28.24Z" fill="url(#paint3_linear_89_1491)"/>
<path d="M70.1227 28C69.1749 28 68.4067 27.2317 68.4067 26.284V16.9722C68.4067 16.0509 69.1535 15.304 70.0748 15.304H70.7885C71.2932 15.304 71.7065 15.7053 71.7213 16.2098L71.7884 18.4905C71.7961 18.7525 71.4574 18.863 71.3091 18.6468V18.6468C71.2645 18.5817 71.2511 18.5 71.2751 18.4248C71.4691 17.8161 71.769 17.2638 72.1747 16.768C72.6067 16.224 73.1107 15.8 73.6867 15.496C74.2787 15.192 74.8947 15.04 75.5347 15.04C75.8067 15.04 76.0707 15.064 76.3267 15.112V15.112C76.7016 15.1823 76.9063 15.5605 76.8161 15.9311L76.2375 18.3064C76.1492 18.6687 75.7306 18.8649 75.3667 18.784V18.784C75.0947 18.704 74.8147 18.664 74.5267 18.664C74.1427 18.664 73.7827 18.736 73.4467 18.88C73.1267 19.008 72.8467 19.2 72.6067 19.456C72.3667 19.696 72.1747 19.984 72.0307 20.32C71.9027 20.656 71.8387 21.024 71.8387 21.424V26.284C71.8387 27.2317 71.0704 28 70.1227 28V28Z" fill="url(#paint4_linear_89_1491)"/>
<path d="M80.6581 28C79.717 28 78.9541 27.2371 78.9541 26.296V11.944C78.9541 11.0029 79.717 10.24 80.6581 10.24V10.24C81.5992 10.24 82.3621 11.0029 82.3621 11.944V26.296C82.3621 27.2371 81.5992 28 80.6581 28V28Z" fill="url(#paint5_linear_89_1491)"/>
<circle cx="89.8311" cy="24.5" r="4" fill="#6028E0"/>
<defs>
<linearGradient id="paint0_linear_89_1491" x1="31.5" y1="10" x2="60" y2="34" gradientUnits="userSpaceOnUse">
<stop stop-color="#9E17CE"/>
<stop offset="1" stop-color="#FF00A8" stop-opacity="0.71"/>
</linearGradient>
<linearGradient id="paint1_linear_89_1491" x1="31.5" y1="10" x2="60" y2="34" gradientUnits="userSpaceOnUse">
<stop stop-color="#9E17CE"/>
<stop offset="1" stop-color="#FF00A8" stop-opacity="0.71"/>
</linearGradient>
<linearGradient id="paint2_linear_89_1491" x1="31.5" y1="10" x2="60" y2="34" gradientUnits="userSpaceOnUse">
<stop stop-color="#9E17CE"/>
<stop offset="1" stop-color="#FF00A8" stop-opacity="0.71"/>
</linearGradient>
<linearGradient id="paint3_linear_89_1491" x1="31.5" y1="10" x2="60" y2="34" gradientUnits="userSpaceOnUse">
<stop stop-color="#9E17CE"/>
<stop offset="1" stop-color="#FF00A8" stop-opacity="0.71"/>
</linearGradient>
<linearGradient id="paint4_linear_89_1491" x1="31.5" y1="10" x2="60" y2="34" gradientUnits="userSpaceOnUse">
<stop stop-color="#9E17CE"/>
<stop offset="1" stop-color="#FF00A8" stop-opacity="0.71"/>
</linearGradient>
<linearGradient id="paint5_linear_89_1491" x1="31.5" y1="10" x2="60" y2="34" gradientUnits="userSpaceOnUse">
<stop stop-color="#9E17CE"/>
<stop offset="1" stop-color="#FF00A8" stop-opacity="0.71"/>
</linearGradient>
</defs>
</svg>
