<svg width="137" height="36" viewBox="0 0 137 36" fill="none" xmlns="http://www.w3.org/2000/svg">
<path d="M2.184 27V10.2H9.312C10.32 10.2 11.224 10.44 12.024 10.92C12.824 11.384 13.456 12.024 13.92 12.84C14.4 13.656 14.64 14.576 14.64 15.6C14.64 16.64 14.4 17.576 13.92 18.408C13.456 19.24 12.824 19.904 12.024 20.4C11.224 20.88 10.32 21.12 9.312 21.12H5.784V27H2.184ZM5.736 17.88H8.904C9.288 17.88 9.632 17.784 9.936 17.592C10.24 17.384 10.48 17.112 10.656 16.776C10.848 16.44 10.944 16.056 10.944 15.624C10.944 15.192 10.848 14.816 10.656 14.496C10.48 14.176 10.24 13.92 9.936 13.728C9.632 13.536 9.288 13.44 8.904 13.44H5.736V17.88Z" fill="#38383D"/>
<path d="M18.4325 28C17.4914 28 16.7285 27.2371 16.7285 26.296V11.944C16.7285 11.0029 17.4914 10.24 18.4325 10.24V10.24C19.3736 10.24 20.1365 11.0029 20.1365 11.944V26.296C20.1365 27.2371 19.3736 28 18.4325 28V28Z" fill="#38383D"/>
<path d="M28.1128 28.24C27.0568 28.24 26.1048 27.952 25.2568 27.376C24.4088 26.8 23.7368 26.016 23.2408 25.024C22.7448 24.032 22.4968 22.896 22.4968 21.616C22.4968 20.336 22.7448 19.2 23.2408 18.208C23.7528 17.216 24.4408 16.44 25.3048 15.88C26.1688 15.32 27.1528 15.04 28.2568 15.04C28.8808 15.04 29.4488 15.136 29.9608 15.328C30.4888 15.504 30.9448 15.752 31.3288 16.072C31.7288 16.392 32.0648 16.76 32.3368 17.176C32.5224 17.4599 32.6708 17.7588 32.7819 18.0726C32.856 18.2817 32.6716 18.4798 32.4527 18.4433V18.4433C32.3027 18.4183 32.1928 18.2885 32.1928 18.1365V16.9801C32.1928 16.0544 32.9511 15.304 33.8768 15.304V15.304C34.8113 15.304 35.5768 16.0615 35.5768 16.996V26.284C35.5768 27.2317 34.8085 28 33.8608 28H33.74C32.859 28 32.1448 27.2858 32.1448 26.4047V25.2479C32.1448 25.0802 32.2724 24.94 32.4394 24.9244V24.9244C32.6671 24.903 32.8437 25.1174 32.7547 25.3281C32.6343 25.6132 32.479 25.8878 32.2888 26.152C32.0008 26.552 31.6408 26.912 31.2088 27.232C30.7928 27.536 30.3208 27.784 29.7928 27.976C29.2648 28.152 28.7048 28.24 28.1128 28.24ZM29.0488 25.288C29.6888 25.288 30.2488 25.136 30.7288 24.832C31.2088 24.528 31.5768 24.104 31.8328 23.56C32.1048 23 32.2408 22.352 32.2408 21.616C32.2408 20.896 32.1048 20.264 31.8328 19.72C31.5768 19.176 31.2088 18.752 30.7288 18.448C30.2488 18.128 29.6888 17.968 29.0488 17.968C28.4248 17.968 27.8728 18.128 27.3928 18.448C26.9288 18.752 26.5608 19.176 26.2888 19.72C26.0168 20.264 25.8808 20.896 25.8808 21.616C25.8808 22.352 26.0168 23 26.2888 23.56C26.5608 24.104 26.9288 24.528 27.3928 24.832C27.8728 25.136 28.4248 25.288 29.0488 25.288Z" fill="#38383D"/>
<path d="M42.2434 33.52C41.4118 33.52 40.8506 32.6705 41.1768 31.9056L42.8988 27.8679C42.9859 27.6636 43.2901 27.7219 43.2955 27.944V27.944C43.301 28.1691 42.9936 28.2395 42.9006 28.0344L38.2463 17.7697C37.7225 16.6144 38.5672 15.304 39.8357 15.304V15.304C40.5368 15.304 41.1698 15.7236 41.4429 16.3693L44.0883 22.624C44.2163 22.896 44.3363 23.216 44.4483 23.584C44.5563 23.881 44.6472 24.1666 44.7211 24.4408C44.7446 24.5283 44.7007 24.6193 44.6184 24.6571V24.6571C44.4632 24.7282 44.2975 24.5709 44.3551 24.4102C44.4102 24.2565 44.4653 24.0931 44.5203 23.92C44.6483 23.568 44.7763 23.192 44.9043 22.792L47.1522 16.4737C47.4017 15.7724 48.0655 15.304 48.8099 15.304V15.304C50.0673 15.304 50.9188 16.5848 50.4322 17.7443L46.1283 28L44.3384 32.524C44.1006 33.1251 43.5197 33.52 42.8732 33.52H42.2434Z" fill="#38383D"/>
<path d="M57.6585 28.24C56.7305 28.24 55.9305 28.04 55.2585 27.64C54.6025 27.224 54.0905 26.64 53.7225 25.888C53.3705 25.12 53.1945 24.2 53.1945 23.128V17.008C53.1945 16.0669 53.9574 15.304 54.8985 15.304V15.304C55.8395 15.304 56.6025 16.0669 56.6025 17.008V22.576C56.6025 23.152 56.6985 23.656 56.8905 24.088C57.0825 24.504 57.3545 24.824 57.7065 25.048C58.0585 25.272 58.4905 25.384 59.0025 25.384C59.3705 25.384 59.7065 25.328 60.0105 25.216C60.3305 25.088 60.6025 24.912 60.8265 24.688C61.0665 24.464 61.2505 24.2 61.3785 23.896C61.5065 23.592 61.5705 23.264 61.5705 22.912V17.008C61.5705 16.0669 62.3334 15.304 63.2745 15.304V15.304C64.2155 15.304 64.9785 16.0669 64.9785 17.008V26.3429C64.9785 27.2581 64.2365 28 63.3213 28H63.2751C62.4153 28 61.7074 27.3239 61.668 26.4649L61.6256 25.5401C61.6213 25.4457 61.6745 25.3581 61.7603 25.3185V25.3185C61.9443 25.2336 62.1334 25.4061 62.0468 25.5892C61.8573 25.9894 61.6026 26.361 61.2825 26.704C60.8345 27.184 60.2985 27.56 59.6745 27.832C59.0505 28.104 58.3785 28.24 57.6585 28.24Z" fill="#38383D"/>
<path d="M70.1236 28C69.1759 28 68.4076 27.2317 68.4076 26.284V16.9722C68.4076 16.0509 69.1545 15.304 70.0758 15.304H70.7894C71.2942 15.304 71.7074 15.7053 71.7223 16.2098L71.7894 18.4905C71.7971 18.7525 71.4584 18.863 71.3101 18.6468V18.6468C71.2655 18.5817 71.2521 18.5 71.2761 18.4248C71.4701 17.8161 71.77 17.2638 72.1756 16.768C72.6076 16.224 73.1116 15.8 73.6876 15.496C74.2796 15.192 74.8956 15.04 75.5356 15.04C75.8076 15.04 76.0716 15.064 76.3276 15.112V15.112C76.7025 15.1823 76.9073 15.5605 76.817 15.9311L76.2384 18.3064C76.1502 18.6687 75.7316 18.8649 75.3676 18.784V18.784C75.0956 18.704 74.8156 18.664 74.5276 18.664C74.1436 18.664 73.7836 18.736 73.4476 18.88C73.1276 19.008 72.8476 19.2 72.6076 19.456C72.3676 19.696 72.1756 19.984 72.0316 20.32C71.9036 20.656 71.8396 21.024 71.8396 21.424V26.284C71.8396 27.2317 71.0714 28 70.1236 28V28Z" fill="#38383D"/>
<path d="M80.6591 28C79.718 28 78.9551 27.2371 78.9551 26.296V11.944C78.9551 11.0029 79.718 10.24 80.6591 10.24V10.24C81.6002 10.24 82.3631 11.0029 82.3631 11.944V26.296C82.3631 27.2371 81.6002 28 80.6591 28V28Z" fill="#38383D"/>
<circle cx="89.832" cy="24.5" r="4" fill="#8352FA"/>
</svg>
